<?xml version="1.0" standalone="no"?>
<!DOCTYPE svg PUBLIC "-//W3C//DTD SVG 20010904//EN"
 "http://www.w3.org/TR/2001/REC-SVG-20010904/DTD/svg10.dtd">
<svg version="1.0" xmlns="http://www.w3.org/2000/svg"
 width="509.000000pt" height="339.000000pt" viewBox="0 0 509.000000 339.000000"
 preserveAspectRatio="xMidYMid meet">

<g transform="translate(0.000000,339.000000) scale(0.100000,-0.100000)"
fill="#000000" stroke="none">
<path d="M0 1695 l0 -1695 2545 0 2545 0 0 640 0 640 -30 0 c-19 0 -33 7 -40
20 -8 16 -18 19 -43 16 -18 -3 -27 -3 -21 0 7 3 9 14 6 26 -4 18 -2 20 16 16
18 -5 22 -2 22 20 1 26 1 26 15 8 10 -14 12 -23 4 -32 -7 -8 -2 -20 16 -40 17
-18 25 -23 21 -11 -6 20 5 22 22 5 9 -9 12 26 12 160 0 108 -4 172 -10 172 -5
0 -10 5 -10 11 0 5 5 7 10 4 6 -3 10 -2 10 4 0 5 -6 12 -12 14 -10 4 -10 7 0
14 8 6 12 33 10 80 l-1 71 -40 -37 c-21 -20 -44 -35 -51 -34 -7 2 -12 -10 -13
-30 0 -20 1 -23 4 -9 2 12 9 20 14 16 6 -3 19 2 30 12 18 16 19 16 19 -3 0
-22 -26 -49 -52 -54 -12 -3 -15 -8 -8 -18 7 -12 11 -13 24 -1 9 7 19 10 23 7
10 -11 10 -97 -1 -97 -6 0 -5 -5 2 -12 7 -7 12 -18 12 -25 0 -16 -50 -42 -69
-35 -9 3 -11 0 -6 -8 5 -8 4 -11 -3 -6 -6 3 -16 1 -24 -6 -28 -27 -63 -38 -98
-30 -31 7 -35 11 -32 37 2 23 1 27 -7 15 -6 -8 -11 -22 -11 -30 0 -17 -76 -44
-100 -36 -8 2 -27 7 -42 10 -29 7 -39 26 -14 26 7 0 16 13 18 28 l4 29 -76 -1
c-52 -1 -82 4 -93 13 -19 15 -23 71 -6 71 6 0 19 10 30 23 10 12 18 16 19 10
0 -7 -4 -13 -10 -13 -5 0 -10 -3 -10 -8 0 -4 24 -7 53 -7 34 0 61 -6 78 -17
25 -17 27 -17 25 0 0 9 5 16 12 14 8 -1 11 2 8 7 -10 16 92 109 139 127 24 9
48 13 53 10 13 -8 42 3 42 15 0 5 -5 9 -11 9 -10 0 -78 59 -132 115 -17 18
-28 24 -27 15 4 -30 0 -37 -22 -35 -30 2 -36 37 -11 62 14 14 18 33 17 81 0
34 3 62 7 62 5 0 6 6 4 13 -2 6 2 21 10 31 12 16 18 17 27 8 7 -7 17 -12 23
-12 13 1 45 64 45 90 0 22 24 27 36 9 4 -8 28 -10 71 -6 37 4 61 3 58 -3 -3
-5 1 -13 10 -17 14 -8 14 -14 1 -57 -8 -27 -25 -59 -37 -72 -12 -13 -18 -24
-12 -24 12 0 53 43 53 56 0 6 11 25 24 43 l25 34 1 598 0 599 -2545 0 -2545 0
0 -1695z m4752 821 c21 -40 22 -40 29 -16 10 35 11 -97 2 -141 -7 -31 -8 -29
-13 26 -4 50 -8 60 -22 57 -15 -2 -18 6 -19 55 -2 48 -3 52 -8 23 -3 -19 -12
-36 -19 -38 -8 -1 -11 2 -7 7 3 6 0 19 -6 29 -10 15 -9 23 2 34 20 22 37 12
61 -36z m-198 -51 c-6 -13 -15 -16 -69 -19 -28 -2 -20 19 10 25 52 11 65 10
59 -6z m263 -87 c-3 -8 -6 -5 -6 6 -1 11 2 17 5 13 3 -3 4 -12 1 -19z m-146
-20 c9 -17 9 -24 -4 -33 -13 -9 -14 -14 -5 -23 16 -16 33 -15 20 1 -8 10 -6
13 9 14 16 2 17 -1 8 -19 -6 -11 -9 -40 -7 -64 2 -32 -1 -44 -10 -44 -7 0 -24
-13 -38 -29 -14 -16 -32 -30 -42 -30 -37 1 -57 -9 -54 -25 2 -12 -5 -16 -25
-16 -26 1 -67 22 -59 31 2 2 6 28 9 58 6 61 33 104 67 109 17 3 21 9 17 28 -2
14 -2 22 1 19 3 -3 15 3 26 14 18 16 37 25 68 30 4 0 13 -9 19 -21z m-134 -34
c-3 -3 -12 -4 -19 -1 -8 3 -5 6 6 6 11 1 17 -2 13 -5z m249 -60 c-11 -30 -15
-33 -15 -16 -1 24 17 67 25 59 2 -2 -2 -21 -10 -43z m91 20 c-9 -9 -28 6 -21
18 4 6 10 6 17 -1 6 -6 8 -13 4 -17z m113 16 c18 -12 2 -12 -25 0 -13 6 -15 9
-5 9 8 0 22 -4 30 -9z m-517 -56 c-14 -24 -31 -44 -38 -44 -18 0 -74 49 -57
50 7 0 10 5 7 10 -3 6 3 10 15 10 12 0 28 6 35 14 8 7 25 11 38 9 l25 -5 -25
-44z m-130 -96 c-4 -25 -13 -42 -30 -53 -33 -22 -40 -12 -14 21 11 15 21 32
21 38 0 11 21 39 25 33 1 -1 0 -19 -2 -39z m73 20 c11 -18 11 -72 -1 -80 -6
-5 -6 -8 3 -8 6 0 12 -4 12 -10 0 -17 -16 -11 -44 15 -28 26 -36 79 -13 88 21
9 36 7 43 -5z m213 -99 c-18 -11 -39 -11 -39 0 0 11 31 20 44 13 4 -2 2 -8 -5
-13z m-384 -19 c3 -5 2 -10 -4 -10 -5 0 -13 5 -16 10 -3 6 -2 10 4 10 5 0 13
-4 16 -10z m52 -38 c-17 -7 -37 -17 -44 -24 -10 -8 -13 -7 -13 6 0 9 8 16 20
16 13 0 20 7 20 19 0 17 3 18 24 8 l24 -12 -31 -13z m76 21 c-7 -2 -19 -2 -25
0 -7 3 -2 5 12 5 14 0 19 -2 13 -5z m62 -76 c22 -11 34 -22 27 -25 -15 -5
-130 36 -138 50 -9 15 66 -2 111 -25z m65 -26 c0 -5 -7 -11 -14 -14 -10 -4
-13 -1 -9 9 6 15 23 19 23 5z m63 -8 c9 -3 17 -9 17 -14 0 -13 -12 -11 -34 6
-10 8 -23 12 -27 9 -5 -3 -9 0 -9 6 0 8 7 9 18 5 9 -4 25 -10 35 -12z m-233
-45 c0 -4 -4 -10 -10 -13 -5 -3 -10 -1 -10 4 0 6 -9 11 -20 11 -19 0 -26 11
-15 22 7 7 55 -14 55 -24z m221 15 c13 -17 13 -17 -6 -3 -11 8 -22 16 -24 17
-2 2 0 3 6 3 6 0 17 -8 24 -17z m132 -4 c67 -22 103 -45 52 -33 -16 3 -45 13
-64 20 -18 8 -42 14 -52 14 -10 0 -21 5 -24 10 -10 16 20 12 88 -11z m-213
-34 c0 -8 -9 -15 -20 -15 -13 0 -18 5 -14 15 4 8 12 15 20 15 8 0 14 -7 14
-15z m-200 -10 c0 -9 6 -18 13 -20 6 -2 26 -10 42 -17 17 -6 37 -12 45 -13 8
0 14 -6 13 -12 -1 -7 6 -9 20 -5 21 5 21 5 4 -12 -9 -10 -15 -21 -12 -26 3 -5
-1 -11 -7 -13 -10 -4 -10 -6 0 -6 8 -1 16 8 19 19 6 21 23 18 23 -5 0 -7 -13
-16 -29 -20 -16 -3 -32 -13 -35 -22 -6 -14 -4 -14 11 -2 17 13 17 13 3 -5 -8
-11 -13 -20 -10 -21 8 -3 -34 -75 -43 -75 -4 0 -5 6 -1 13 5 8 3 8 -9 -2 -9
-7 -15 -16 -13 -20 11 -17 -67 -2 -91 17 -14 11 -30 19 -35 16 -5 -3 -3 -11 5
-17 8 -7 17 -20 20 -29 5 -14 1 -18 -19 -18 -21 0 -24 4 -19 20 5 15 2 20 -10
20 -12 0 -15 5 -11 16 3 9 6 19 6 23 0 4 8 8 18 9 64 7 93 15 81 23 -12 7 -11
9 1 9 13 0 13 1 0 10 -12 7 -13 13 -4 27 9 14 8 21 -2 31 -11 10 -15 8 -24 -7
-5 -11 -10 -28 -10 -39 0 -22 -9 -34 -21 -26 -4 2 -1 24 7 47 13 35 19 66 26
132 2 18 48 17 48 0z m245 5 c-3 -5 -10 -10 -16 -10 -5 0 -9 5 -9 10 0 6 7 10
16 10 8 0 12 -4 9 -10z m175 -50 c8 -5 11 -10 5 -10 -5 0 -17 5 -25 10 -8 5
-10 10 -5 10 6 0 17 -5 25 -10z m-235 -20 c3 -5 1 -10 -4 -10 -6 0 -11 5 -11
10 0 6 2 10 4 10 3 0 8 -4 11 -10z m616 -23 c-8 -8 -11 -7 -11 4 0 20 13 34
18 19 3 -7 -1 -17 -7 -23z m-611 -76 c0 -6 -4 -13 -10 -16 -5 -3 -10 1 -10 9
0 9 5 16 10 16 6 0 10 -4 10 -9z m-285 -21 c3 -5 1 -10 -4 -10 -6 0 -11 5 -11
10 0 6 2 10 4 10 3 0 8 -4 11 -10z m24 -166 c19 -18 39 -31 43 -28 4 3 8 0 8
-6 0 -6 10 -15 23 -21 13 -6 31 -23 41 -37 10 -15 15 -20 13 -11 -7 20 26 49
56 49 27 -1 64 -26 46 -32 -8 -3 -6 -9 5 -21 10 -9 14 -17 10 -17 -5 0 -3 -5
4 -12 8 -8 15 -8 27 2 20 16 41 -1 31 -25 -5 -14 -9 -15 -22 -4 -11 9 -17 10
-23 1 -4 -7 -12 -8 -21 -2 -8 5 -24 8 -35 6 -11 -2 -14 -1 -7 1 6 3 12 8 12
13 0 5 -6 7 -14 4 -8 -3 -17 -1 -21 5 -4 7 -16 4 -33 -8 -24 -17 -61 -21 -114
-12 -15 2 -78 69 -78 82 0 8 -6 23 -13 34 -8 11 -17 29 -21 39 -5 15 -4 16 7
8 10 -8 12 -5 11 16 -2 37 7 50 20 27 6 -10 27 -33 45 -51z m315 -20 c3 -8 2
-12 -4 -9 -6 3 -10 10 -10 16 0 14 7 11 14 -7z m-24 -14 c0 -5 -5 -10 -11 -10
-5 0 -7 5 -4 10 3 6 8 10 11 10 2 0 4 -4 4 -10z m390 -75 c0 -3 -7 -16 -15
-29 -14 -21 -13 -23 10 -36 20 -11 25 -21 25 -50 0 -45 -25 -71 -60 -64 l-25
5 23 -14 c21 -12 22 -15 8 -26 -14 -11 -16 -11 -16 4 0 11 -5 15 -15 12 -8 -4
-17 -2 -20 3 -4 6 -1 10 4 10 20 0 12 58 -8 65 -19 6 -36 33 -26 43 3 3 11 -3
19 -13 13 -18 15 -17 34 15 12 19 26 41 32 48 6 6 8 12 5 12 -3 0 -3 5 0 10 6
10 25 14 25 5z m-641 -71 c14 -12 -19 -1 -35 12 -18 14 -18 14 6 3 14 -6 27
-13 29 -15z m316 -32 c3 -28 0 -54 -5 -57 -6 -4 -10 18 -10 56 0 73 9 73 15 1z
m170 38 c-4 -11 -2 -20 4 -20 6 0 11 -9 11 -20 0 -23 -18 -26 -45 -6 -18 13
-18 15 -2 40 21 31 41 35 32 6z m-287 -26 c10 -10 -61 5 -71 15 -6 6 6 6 28 1
20 -4 40 -12 43 -16z m-13 -51 c17 -5 29 -15 27 -21 -1 -8 7 -11 25 -7 27 5
27 5 4 -5 -25 -11 -34 -9 -120 22 -38 15 -49 23 -40 29 10 6 11 9 2 9 -7 0
-13 4 -13 10 0 5 19 1 43 -9 23 -10 56 -23 72 -28z m338 -18 c-7 -21 -13 -19
-13 6 0 11 4 18 10 14 5 -3 7 -12 3 -20z m248 -212 c11 -30 6 -101 -10 -132
-18 -32 -51 -52 -72 -41 -20 11 -33 74 -22 112 10 33 58 88 78 88 9 0 20 -12
26 -27z"/>
<path d="M4575 2320 c-3 -6 4 -9 19 -8 13 1 22 6 20 10 -7 11 -32 10 -39 -2z"/>
<path d="M4610 2290 c0 -5 5 -10 10 -10 6 0 10 5 10 10 0 6 -4 10 -10 10 -5 0
-10 -4 -10 -10z"/>
<path d="M4516 2131 c-4 -7 -5 -15 -2 -18 9 -9 19 4 14 18 -4 11 -6 11 -12 0z"/>
<path d="M4331 1661 c-7 -5 -9 -11 -4 -14 6 -4 19 0 29 8 15 11 16 14 4 15 -8
0 -21 -4 -29 -9z"/>
<path d="M4830 1270 c0 -5 4 -10 9 -10 6 0 13 5 16 10 3 6 -1 10 -9 10 -9 0
-16 -4 -16 -10z"/>
<path d="M4840 1240 c0 -5 5 -10 11 -10 5 0 7 5 4 10 -3 6 -8 10 -11 10 -2 0
-4 -4 -4 -10z"/>
<path d="M4375 1239 c22 -10 47 -18 55 -18 8 0 -7 9 -35 19 -63 25 -73 24 -20
-1z"/>
<path d="M4986 1871 c-3 -5 1 -11 9 -15 9 -3 15 0 15 9 0 16 -16 20 -24 6z"/>
<path d="M4906 1625 c-11 -8 -15 -15 -10 -15 6 0 19 7 30 15 10 8 15 14 9 14
-5 0 -19 -6 -29 -14z"/>
<path d="M4664 1586 c11 -9 27 -16 35 -15 14 0 14 1 1 6 -8 3 -24 10 -35 15
-20 9 -20 9 -1 -6z"/>
<path d="M4768 1583 c7 -3 16 -2 19 1 4 3 -2 6 -13 5 -11 0 -14 -3 -6 -6z"/>
<path d="M4960 1560 c0 -5 5 -10 10 -10 6 0 10 5 10 10 0 6 -4 10 -10 10 -5 0
-10 -4 -10 -10z"/>
<path d="M4870 1480 c0 -5 7 -10 16 -10 8 0 12 5 9 10 -3 6 -10 10 -16 10 -5
0 -9 -4 -9 -10z"/>
</g>
</svg>
